<mxfile host="Electron" modified="2024-12-17T20:16:05.653Z" agent="Mozilla/5.0 (Macintosh; Intel Mac OS X 10_15_7) AppleWebKit/537.36 (KHTML, like Gecko) draw.io/22.0.3 Chrome/114.0.5735.289 Electron/25.8.4 Safari/537.36" etag="eLXBOTPo3-Hgb_URZz7H" version="22.0.3" type="device">
  <diagram name="Page-1" id="P1smVf8LNYwo1xxgSmAc">
    <mxGraphModel dx="1036" dy="756" grid="1" gridSize="10" guides="1" tooltips="1" connect="1" arrows="1" fold="1" page="1" pageScale="1" pageWidth="827" pageHeight="1169" math="0" shadow="0">
      <root>
        <mxCell id="0" />
        <mxCell id="1" parent="0" />
        <mxCell id="debPvKejbGicWEP71l3N-11" style="edgeStyle=orthogonalEdgeStyle;rounded=0;orthogonalLoop=1;jettySize=auto;html=1;exitX=0.5;exitY=1;exitDx=0;exitDy=0;entryX=0.5;entryY=0;entryDx=0;entryDy=0;" edge="1" parent="1" source="debPvKejbGicWEP71l3N-2" target="debPvKejbGicWEP71l3N-4">
          <mxGeometry relative="1" as="geometry" />
        </mxCell>
        <mxCell id="debPvKejbGicWEP71l3N-2" value="Начало" style="rounded=1;whiteSpace=wrap;html=1;absoluteArcSize=1;arcSize=200;" vertex="1" parent="1">
          <mxGeometry x="329" width="170" height="60" as="geometry" />
        </mxCell>
        <mxCell id="debPvKejbGicWEP71l3N-22" style="edgeStyle=orthogonalEdgeStyle;rounded=0;orthogonalLoop=1;jettySize=auto;html=1;exitX=0.5;exitY=1;exitDx=0;exitDy=0;entryX=0.5;entryY=0;entryDx=0;entryDy=0;" edge="1" parent="1" source="debPvKejbGicWEP71l3N-3" target="debPvKejbGicWEP71l3N-14">
          <mxGeometry relative="1" as="geometry" />
        </mxCell>
        <mxCell id="debPvKejbGicWEP71l3N-3" value="Цикл по клиентским сокетам&amp;nbsp;" style="shape=loopLimit;whiteSpace=wrap;html=1;" vertex="1" parent="1">
          <mxGeometry x="328" y="520" width="171" height="60" as="geometry" />
        </mxCell>
        <mxCell id="debPvKejbGicWEP71l3N-12" style="edgeStyle=orthogonalEdgeStyle;rounded=0;orthogonalLoop=1;jettySize=auto;html=1;exitX=0.5;exitY=1;exitDx=0;exitDy=0;entryX=0.5;entryY=0;entryDx=0;entryDy=0;" edge="1" parent="1" source="debPvKejbGicWEP71l3N-4" target="debPvKejbGicWEP71l3N-5">
          <mxGeometry relative="1" as="geometry" />
        </mxCell>
        <mxCell id="debPvKejbGicWEP71l3N-4" value="Получение числа сокетов, сотояние которых изменилось с использованием poll" style="rounded=0;whiteSpace=wrap;html=1;" vertex="1" parent="1">
          <mxGeometry x="328" y="90" width="171" height="60" as="geometry" />
        </mxCell>
        <mxCell id="debPvKejbGicWEP71l3N-8" style="edgeStyle=orthogonalEdgeStyle;rounded=0;orthogonalLoop=1;jettySize=auto;html=1;exitX=0;exitY=0.5;exitDx=0;exitDy=0;" edge="1" parent="1" source="debPvKejbGicWEP71l3N-5" target="debPvKejbGicWEP71l3N-6">
          <mxGeometry relative="1" as="geometry" />
        </mxCell>
        <mxCell id="debPvKejbGicWEP71l3N-13" style="edgeStyle=orthogonalEdgeStyle;rounded=0;orthogonalLoop=1;jettySize=auto;html=1;exitX=1;exitY=0.5;exitDx=0;exitDy=0;entryX=0.5;entryY=0;entryDx=0;entryDy=0;" edge="1" parent="1" source="debPvKejbGicWEP71l3N-5" target="debPvKejbGicWEP71l3N-3">
          <mxGeometry relative="1" as="geometry">
            <Array as="points">
              <mxPoint x="580" y="220" />
              <mxPoint x="580" y="490" />
              <mxPoint x="414" y="490" />
            </Array>
          </mxGeometry>
        </mxCell>
        <mxCell id="debPvKejbGicWEP71l3N-5" value="Серверный сокет&lt;br&gt;готов к чтению?" style="rhombus;whiteSpace=wrap;html=1;" vertex="1" parent="1">
          <mxGeometry x="298" y="180" width="232" height="80" as="geometry" />
        </mxCell>
        <mxCell id="debPvKejbGicWEP71l3N-9" style="edgeStyle=orthogonalEdgeStyle;rounded=0;orthogonalLoop=1;jettySize=auto;html=1;exitX=0.5;exitY=1;exitDx=0;exitDy=0;entryX=0.5;entryY=0;entryDx=0;entryDy=0;" edge="1" parent="1" source="debPvKejbGicWEP71l3N-6" target="debPvKejbGicWEP71l3N-7">
          <mxGeometry relative="1" as="geometry" />
        </mxCell>
        <mxCell id="debPvKejbGicWEP71l3N-6" value="Принять новое соединение клиента" style="shape=process;whiteSpace=wrap;html=1;backgroundOutline=1;" vertex="1" parent="1">
          <mxGeometry x="190" y="320" width="172" height="60" as="geometry" />
        </mxCell>
        <mxCell id="debPvKejbGicWEP71l3N-10" style="edgeStyle=orthogonalEdgeStyle;rounded=0;orthogonalLoop=1;jettySize=auto;html=1;exitX=0.5;exitY=1;exitDx=0;exitDy=0;entryX=0.5;entryY=0;entryDx=0;entryDy=0;" edge="1" parent="1" source="debPvKejbGicWEP71l3N-7" target="debPvKejbGicWEP71l3N-3">
          <mxGeometry relative="1" as="geometry" />
        </mxCell>
        <mxCell id="debPvKejbGicWEP71l3N-7" value="Уменьшить число сокетов, состояние которых изменилось" style="rounded=0;whiteSpace=wrap;html=1;" vertex="1" parent="1">
          <mxGeometry x="190" y="420" width="171" height="60" as="geometry" />
        </mxCell>
        <mxCell id="debPvKejbGicWEP71l3N-27" style="edgeStyle=orthogonalEdgeStyle;rounded=0;orthogonalLoop=1;jettySize=auto;html=1;exitX=0;exitY=0.5;exitDx=0;exitDy=0;entryX=0.5;entryY=0;entryDx=0;entryDy=0;" edge="1" parent="1" source="debPvKejbGicWEP71l3N-14" target="debPvKejbGicWEP71l3N-19">
          <mxGeometry relative="1" as="geometry" />
        </mxCell>
        <mxCell id="debPvKejbGicWEP71l3N-28" style="edgeStyle=orthogonalEdgeStyle;rounded=0;orthogonalLoop=1;jettySize=auto;html=1;exitX=1;exitY=0.5;exitDx=0;exitDy=0;" edge="1" parent="1" source="debPvKejbGicWEP71l3N-14" target="debPvKejbGicWEP71l3N-17">
          <mxGeometry relative="1" as="geometry">
            <Array as="points">
              <mxPoint x="580" y="650" />
              <mxPoint x="580" y="960" />
              <mxPoint x="415" y="960" />
            </Array>
          </mxGeometry>
        </mxCell>
        <mxCell id="debPvKejbGicWEP71l3N-14" value="Сокет готов к чтению?" style="rhombus;whiteSpace=wrap;html=1;" vertex="1" parent="1">
          <mxGeometry x="298" y="610" width="232" height="80" as="geometry" />
        </mxCell>
        <mxCell id="debPvKejbGicWEP71l3N-25" style="edgeStyle=orthogonalEdgeStyle;rounded=0;orthogonalLoop=1;jettySize=auto;html=1;exitX=0.5;exitY=1;exitDx=0;exitDy=0;entryX=0.5;entryY=0;entryDx=0;entryDy=0;" edge="1" parent="1" source="debPvKejbGicWEP71l3N-15" target="debPvKejbGicWEP71l3N-20">
          <mxGeometry relative="1" as="geometry" />
        </mxCell>
        <mxCell id="debPvKejbGicWEP71l3N-15" value="Добавить задачу обработки клиента в пул потоков" style="shape=process;whiteSpace=wrap;html=1;backgroundOutline=1;" vertex="1" parent="1">
          <mxGeometry x="190" y="820" width="172" height="60" as="geometry" />
        </mxCell>
        <mxCell id="debPvKejbGicWEP71l3N-29" style="edgeStyle=orthogonalEdgeStyle;rounded=0;orthogonalLoop=1;jettySize=auto;html=1;exitX=0.5;exitY=0;exitDx=0;exitDy=0;entryX=0.5;entryY=0;entryDx=0;entryDy=0;" edge="1" parent="1" source="debPvKejbGicWEP71l3N-17" target="debPvKejbGicWEP71l3N-21">
          <mxGeometry relative="1" as="geometry" />
        </mxCell>
        <mxCell id="debPvKejbGicWEP71l3N-17" value="Цикл по клиентским сокетам&amp;nbsp;" style="shape=loopLimit;whiteSpace=wrap;html=1;direction=west;" vertex="1" parent="1">
          <mxGeometry x="329" y="1010" width="171" height="60" as="geometry" />
        </mxCell>
        <mxCell id="debPvKejbGicWEP71l3N-24" style="edgeStyle=orthogonalEdgeStyle;rounded=0;orthogonalLoop=1;jettySize=auto;html=1;exitX=0.5;exitY=1;exitDx=0;exitDy=0;entryX=0.5;entryY=0;entryDx=0;entryDy=0;" edge="1" parent="1" source="debPvKejbGicWEP71l3N-19" target="debPvKejbGicWEP71l3N-15">
          <mxGeometry relative="1" as="geometry" />
        </mxCell>
        <mxCell id="debPvKejbGicWEP71l3N-19" value="Инициализировать структуру задачи для обработки в пуле потоков" style="rounded=0;whiteSpace=wrap;html=1;" vertex="1" parent="1">
          <mxGeometry x="190" y="720" width="171" height="60" as="geometry" />
        </mxCell>
        <mxCell id="debPvKejbGicWEP71l3N-26" style="edgeStyle=orthogonalEdgeStyle;rounded=0;orthogonalLoop=1;jettySize=auto;html=1;exitX=0.5;exitY=1;exitDx=0;exitDy=0;entryX=0.5;entryY=1;entryDx=0;entryDy=0;" edge="1" parent="1" source="debPvKejbGicWEP71l3N-20" target="debPvKejbGicWEP71l3N-17">
          <mxGeometry relative="1" as="geometry" />
        </mxCell>
        <mxCell id="debPvKejbGicWEP71l3N-20" value="Уменьшить число сокетов, состояние которых изменилось" style="rounded=0;whiteSpace=wrap;html=1;" vertex="1" parent="1">
          <mxGeometry x="191" y="910" width="171" height="60" as="geometry" />
        </mxCell>
        <mxCell id="debPvKejbGicWEP71l3N-21" value="Конец" style="rounded=1;whiteSpace=wrap;html=1;absoluteArcSize=1;arcSize=170;" vertex="1" parent="1">
          <mxGeometry x="328" y="1100" width="170" height="60" as="geometry" />
        </mxCell>
        <mxCell id="debPvKejbGicWEP71l3N-30" value="Да" style="text;html=1;align=center;verticalAlign=middle;resizable=0;points=[];autosize=1;strokeColor=none;fillColor=none;" vertex="1" parent="1">
          <mxGeometry x="270" y="188" width="40" height="30" as="geometry" />
        </mxCell>
        <mxCell id="debPvKejbGicWEP71l3N-31" value="Да" style="text;html=1;align=center;verticalAlign=middle;resizable=0;points=[];autosize=1;strokeColor=none;fillColor=none;" vertex="1" parent="1">
          <mxGeometry x="270" y="618" width="40" height="30" as="geometry" />
        </mxCell>
      </root>
    </mxGraphModel>
  </diagram>
</mxfile>
